<svg xmlns="http://www.w3.org/2000/svg" width="156" height="27" fill="none" viewBox="0 0 156 27"><g clip-path="url(#a)"><path fill="#F2F4F7" d="M13.385 2.146a.667.667 0 0 1 1.23 0l2.756 6.624c.096.23.313.388.562.408l7.15.574c.591.047.831.785.38 1.17l-5.447 4.667a.67.67 0 0 0-.215.661l1.665 6.978a.667.667 0 0 1-.996.723l-6.122-3.739a.67.67 0 0 0-.695 0l-6.122 3.74a.667.667 0 0 1-.996-.724L8.2 16.25a.67.67 0 0 0-.215-.661l-5.448-4.667a.667.667 0 0 1 .38-1.17l7.15-.574a.67.67 0 0 0 .563-.408z"/><g clip-path="url(#b)"><path fill="#FEC84B" d="M13.385 2.146a.667.667 0 0 1 1.23 0l2.756 6.624c.096.23.313.388.562.408l7.15.574c.591.047.831.785.38 1.17l-5.447 4.667a.67.67 0 0 0-.215.661l1.665 6.978a.667.667 0 0 1-.996.723l-6.122-3.739a.67.67 0 0 0-.695 0l-6.122 3.74a.667.667 0 0 1-.996-.724L8.2 16.25a.67.67 0 0 0-.215-.661l-5.448-4.667a.667.667 0 0 1 .38-1.17l7.15-.574a.67.67 0 0 0 .563-.408z"/></g></g><g clip-path="url(#c)"><path fill="#F2F4F7" d="M45.385 2.146a.667.667 0 0 1 1.23 0l2.756 6.624c.096.23.313.388.562.408l7.15.574c.591.047.831.785.38 1.17l-5.447 4.667a.67.67 0 0 0-.215.661l1.665 6.978a.667.667 0 0 1-.996.723l-6.122-3.739a.67.67 0 0 0-.695 0l-6.122 3.74a.667.667 0 0 1-.996-.724L40.2 16.25a.67.67 0 0 0-.215-.661l-5.448-4.667a.667.667 0 0 1 .38-1.17l7.15-.574a.67.67 0 0 0 .563-.408z"/><g clip-path="url(#d)"><path fill="#FEC84B" d="M45.385 2.146a.667.667 0 0 1 1.23 0l2.756 6.624c.096.23.313.388.562.408l7.15.574c.591.047.831.785.38 1.17l-5.447 4.667a.67.67 0 0 0-.215.661l1.665 6.978a.667.667 0 0 1-.996.723l-6.122-3.739a.67.67 0 0 0-.695 0l-6.122 3.74a.667.667 0 0 1-.996-.724L40.2 16.25a.67.67 0 0 0-.215-.661l-5.448-4.667a.667.667 0 0 1 .38-1.17l7.15-.574a.67.67 0 0 0 .563-.408z"/></g></g><g clip-path="url(#e)"><path fill="#F2F4F7" d="M77.385 2.146a.667.667 0 0 1 1.23 0l2.756 6.624c.096.23.313.388.562.408l7.15.574c.591.047.831.785.38 1.17l-5.447 4.667a.67.67 0 0 0-.215.661l1.665 6.978a.667.667 0 0 1-.996.723l-6.122-3.739a.67.67 0 0 0-.695 0l-6.122 3.74a.667.667 0 0 1-.996-.724L72.2 16.25a.67.67 0 0 0-.215-.661l-5.448-4.667a.667.667 0 0 1 .38-1.17l7.15-.574a.67.67 0 0 0 .563-.408z"/><g clip-path="url(#f)"><path fill="#FEC84B" d="M77.385 2.146a.667.667 0 0 1 1.23 0l2.756 6.624c.096.23.313.388.562.408l7.15.574c.591.047.831.785.38 1.17l-5.447 4.667a.67.67 0 0 0-.215.661l1.665 6.978a.667.667 0 0 1-.996.723l-6.122-3.739a.67.67 0 0 0-.695 0l-6.122 3.74a.667.667 0 0 1-.996-.724L72.2 16.25a.67.67 0 0 0-.215-.661l-5.448-4.667a.667.667 0 0 1 .38-1.17l7.15-.574a.67.67 0 0 0 .563-.408z"/></g></g><g clip-path="url(#g)"><path fill="#F2F4F7" d="M109.385 2.146a.667.667 0 0 1 1.231 0l2.755 6.624c.096.23.313.388.562.408l7.15.574a.667.667 0 0 1 .381 1.17l-5.448 4.667a.67.67 0 0 0-.215.661l1.665 6.978a.667.667 0 0 1-.996.723l-6.122-3.739a.67.67 0 0 0-.695 0l-6.122 3.74a.667.667 0 0 1-.996-.724l1.665-6.978a.67.67 0 0 0-.215-.661l-5.448-4.667a.667.667 0 0 1 .38-1.17l7.151-.574a.67.67 0 0 0 .562-.408z"/><g clip-path="url(#h)"><path fill="#FEC84B" d="M109.385 2.146a.667.667 0 0 1 1.231 0l2.755 6.624c.096.23.313.388.562.408l7.15.574a.667.667 0 0 1 .381 1.17l-5.448 4.667a.67.67 0 0 0-.215.661l1.665 6.978a.667.667 0 0 1-.996.723l-6.122-3.739a.67.67 0 0 0-.695 0l-6.122 3.74a.667.667 0 0 1-.996-.724l1.665-6.978a.67.67 0 0 0-.215-.661l-5.448-4.667a.667.667 0 0 1 .38-1.17l7.151-.574a.67.67 0 0 0 .562-.408z"/></g></g><g clip-path="url(#i)"><path fill="#F2F4F7" d="M141.385 2.146a.667.667 0 0 1 1.231 0l2.755 6.624c.096.23.313.388.562.408l7.15.574a.667.667 0 0 1 .381 1.17l-5.448 4.667a.67.67 0 0 0-.215.661l1.665 6.978a.667.667 0 0 1-.996.723l-6.122-3.739a.67.67 0 0 0-.695 0l-6.122 3.74a.667.667 0 0 1-.996-.724l1.665-6.978a.67.67 0 0 0-.215-.661l-5.448-4.667a.667.667 0 0 1 .38-1.17l7.151-.574a.67.67 0 0 0 .562-.408z"/><g clip-path="url(#j)"><path fill="#FEC84B" d="M141.385 2.146a.667.667 0 0 1 1.231 0l2.755 6.624c.096.23.313.388.562.408l7.15.574a.667.667 0 0 1 .381 1.17l-5.448 4.667a.67.67 0 0 0-.215.661l1.665 6.978a.667.667 0 0 1-.996.723l-6.122-3.739a.67.67 0 0 0-.695 0l-6.122 3.74a.667.667 0 0 1-.996-.724l1.665-6.978a.67.67 0 0 0-.215-.661l-5.448-4.667a.667.667 0 0 1 .38-1.17l7.151-.574a.67.67 0 0 0 .562-.408z"/></g></g><defs><clipPath id="a"><path fill="#fff" d="M.667 0h26.667v26.667H.667z"/></clipPath><clipPath id="b"><path fill="#fff" d="M.667 0h26.667v26.667H.667z"/></clipPath><clipPath id="c"><path fill="#fff" d="M32.667 0h26.667v26.667H32.667z"/></clipPath><clipPath id="d"><path fill="#fff" d="M32.667 0h26.667v26.667H32.667z"/></clipPath><clipPath id="e"><path fill="#fff" d="M64.667 0h26.667v26.667H64.667z"/></clipPath><clipPath id="f"><path fill="#fff" d="M64.667 0h26.667v26.667H64.667z"/></clipPath><clipPath id="g"><path fill="#fff" d="M96.667 0h26.667v26.667H96.667z"/></clipPath><clipPath id="h"><path fill="#fff" d="M96.667 0h26.667v26.667H96.667z"/></clipPath><clipPath id="i"><path fill="#fff" d="M128.667 0h26.667v26.667h-26.667z"/></clipPath><clipPath id="j"><path fill="#fff" d="M128.667 0h26.667v26.667h-26.667z"/></clipPath></defs></svg>