<svg xmlns="http://www.w3.org/2000/svg" width="198" height="48" fill="none" viewBox="0 0 198 48"><path fill="#66C61C" d="M36.307 11.163 35.01 9.866C33.713 8.483 32.33 7.1 30.6 6.236c-1.988-1.038-4.15-.778-6.31-.778H7.953l3.285 4.408H30.86c1.815 0 3.37.346 4.84 1.297.26.086.52.086.605 0"/><path fill="#4CA30D" d="m39.937 18.252-1.296-1.297c-1.297-1.383-2.68-2.766-4.41-3.63-1.987-1.038-4.148-.779-6.31-.779H13.4l3.285 4.409h17.894c1.815 0 3.371.346 4.84 1.297a.55.55 0 0 0 .52 0"/><path fill="#3B7C0F" d="m44 25.167-1.297-1.297c-1.296-1.383-2.68-2.766-4.408-3.63-1.989-1.038-4.15-.778-6.31-.778H18.671l3.285 4.408h16.597c1.815 0 3.371.346 4.84 1.297.26.086.433.173.606 0"/><path fill="#66C61C" d="m7.607 36.837 1.297 1.296c1.297 1.384 2.68 2.767 4.409 3.631 1.988 1.037 4.149.778 6.31.778H35.96l-3.285-4.409H13.053c-1.815 0-3.371-.345-4.84-1.296-.26-.087-.433-.087-.606 0"/><path fill="#4CA30D" d="m3.977 29.749 1.296 1.296c1.297 1.383 2.68 2.767 4.409 3.631 1.988 1.037 4.15.778 6.31.778h14.523l-3.285-4.409H9.336c-1.815 0-3.371-.345-4.84-1.296a.55.55 0 0 0-.52 0"/><path fill="#3B7C0F" d="m0 22.747 1.297 1.296c1.296 1.383 2.68 2.766 4.408 3.63 1.989 1.038 4.15.779 6.31.779h13.313l-3.285-4.409H5.446c-1.815 0-3.371-.346-4.84-1.296-.26-.087-.433-.087-.606 0"/><path fill="#101828" d="M53.932 14.008V34h4.396v-8.26H66.7v-3.416h-8.372v-4.62h9.66v-3.696zM79.014 25.208h-6.468q.027-.42.167-.952.169-.532.533-1.008a3.05 3.05 0 0 1 1.008-.784q.643-.336 1.596-.336 1.455 0 2.156.784.727.784 1.007 2.296m-6.468 2.52H82.99a10.2 10.2 0 0 0-.28-3.22 7.7 7.7 0 0 0-1.288-2.744 6.2 6.2 0 0 0-2.24-1.904q-1.373-.728-3.22-.728-1.653 0-3.025.588a7.1 7.1 0 0 0-2.323 1.624 6.95 6.95 0 0 0-1.513 2.408 8.4 8.4 0 0 0-.531 3.024q0 1.68.504 3.08.531 1.4 1.484 2.408a6.56 6.56 0 0 0 2.323 1.568q1.373.532 3.08.532 2.465 0 4.2-1.12 1.737-1.12 2.576-3.724h-3.5q-.195.672-1.063 1.288-.87.588-2.073.588-1.68 0-2.576-.868t-.98-2.8M84.34 23.976q.084-1.4.7-2.324.615-.924 1.568-1.484a6.6 6.6 0 0 1 2.128-.784 11.7 11.7 0 0 1 2.408-.252q1.092 0 2.212.168 1.12.14 2.044.588.924.449 1.512 1.26.588.785.588 2.1v7.532q0 .98.112 1.876.111.896.392 1.344h-4.032a9 9 0 0 1-.196-.672 10 10 0 0 1-.084-.728 5.2 5.2 0 0 1-2.24 1.372 9 9 0 0 1-2.632.392 7.1 7.1 0 0 1-1.932-.252 4.4 4.4 0 0 1-1.568-.784 3.8 3.8 0 0 1-1.064-1.344q-.364-.811-.364-1.932 0-1.232.42-2.016.447-.811 1.12-1.288a5 5 0 0 1 1.568-.7 15 15 0 0 1 1.792-.392 30 30 0 0 1 1.764-.224 10.6 10.6 0 0 0 1.54-.252q.672-.167 1.064-.476.391-.336.364-.952 0-.644-.224-1.008a1.3 1.3 0 0 0-.56-.588 1.8 1.8 0 0 0-.812-.28 5.3 5.3 0 0 0-.98-.084q-1.176 0-1.848.504t-.784 1.68zm9.184 2.94a1.9 1.9 0 0 1-.644.364q-.365.112-.812.196-.42.084-.896.14t-.952.14q-.449.083-.896.224-.42.14-.756.392-.309.224-.504.588-.196.364-.196.924 0 .532.196.896.195.364.532.588.336.195.784.28.447.084.924.084 1.175 0 1.82-.392.643-.392.952-.924.307-.56.364-1.12.084-.56.084-.896zM104.786 19.524v-4.34h-3.976v4.34h-2.408v2.66h2.408v8.54q0 1.092.364 1.764.363.672.98 1.036a4 4 0 0 0 1.456.476q.84.14 1.764.14.588 0 1.204-.028.615-.028 1.12-.112v-3.08a6 6 0 0 1-.588.084q-.309.028-.644.028-1.008 0-1.344-.336t-.336-1.344v-7.168h2.912v-2.66zM108.75 14.008V34h3.976v-7.588q0-2.213.728-3.164.728-.98 2.352-.98 1.428 0 1.988.896.56.868.56 2.66V34h3.976v-8.904q0-1.344-.252-2.436-.225-1.12-.812-1.876-.588-.784-1.624-1.204-1.008-.448-2.604-.448-1.12 0-2.296.588-1.176.56-1.932 1.82h-.084v-7.532zM134.251 25.208h-6.468q.028-.42.168-.952.168-.532.532-1.008a3.1 3.1 0 0 1 1.008-.784q.645-.336 1.596-.336 1.457 0 2.156.784.729.784 1.008 2.296m-6.468 2.52h10.444a10.2 10.2 0 0 0-.28-3.22 7.7 7.7 0 0 0-1.288-2.744 6.16 6.16 0 0 0-2.24-1.904q-1.371-.728-3.22-.728-1.651 0-3.024.588a7.1 7.1 0 0 0-2.324 1.624 7 7 0 0 0-1.512 2.408 8.5 8.5 0 0 0-.532 3.024q0 1.68.504 3.08.533 1.4 1.484 2.408a6.6 6.6 0 0 0 2.324 1.568q1.373.532 3.08.532 2.465 0 4.2-1.12t2.576-3.724h-3.5q-.195.672-1.064 1.288-.867.588-2.072.588-1.68 0-2.576-.868t-.98-2.8M139.745 19.524V34h3.976v-6.524q0-.98.196-1.82a4 4 0 0 1 .644-1.456q.477-.644 1.232-1.008.756-.364 1.848-.364.364 0 .756.056.393.028.672.084v-3.696a3 3 0 0 0-.868-.14q-.756 0-1.456.224a5 5 0 0 0-1.316.644 4.6 4.6 0 0 0-1.092.98 4.7 4.7 0 0 0-.756 1.232h-.056v-2.688zM154.604 30.304v-12.6h3.136q1.624 0 2.716.476 1.12.448 1.792 1.316t.952 2.1q.308 1.204.308 2.716 0 1.652-.42 2.8t-1.12 1.876a4.15 4.15 0 0 1-1.596 1.008 5.6 5.6 0 0 1-1.848.308zm-4.396-16.296V34h8.624q2.296 0 3.976-.756 1.708-.784 2.828-2.128 1.148-1.344 1.708-3.192t.56-4.032q0-2.492-.7-4.34-.672-1.848-1.904-3.08a7.7 7.7 0 0 0-2.884-1.848q-1.652-.615-3.584-.616zM179.446 25.208h-6.468q.028-.42.168-.952.168-.532.532-1.008a3 3 0 0 1 1.008-.784q.643-.336 1.596-.336 1.456 0 2.156.784.727.784 1.008 2.296m-6.468 2.52h10.444a10.2 10.2 0 0 0-.28-3.22 7.7 7.7 0 0 0-1.288-2.744 6.2 6.2 0 0 0-2.24-1.904q-1.372-.728-3.22-.728-1.651 0-3.024.588a7.05 7.05 0 0 0-2.324 1.624 7 7 0 0 0-1.512 2.408 8.4 8.4 0 0 0-.532 3.024q0 1.68.504 3.08a7.2 7.2 0 0 0 1.484 2.408 6.56 6.56 0 0 0 2.324 1.568q1.372.532 3.08.532 2.464 0 4.2-1.12t2.576-3.724h-3.5q-.196.672-1.064 1.288-.868.588-2.072.588-1.68 0-2.576-.868t-.98-2.8M192.948 34l4.9-14.476H193.9l-3.052 9.884h-.056l-3.052-9.884h-4.172L188.524 34z"/></svg>