<svg xmlns="http://www.w3.org/2000/svg" width="500" height="500" version="1.0" viewBox="0 0 375 375"><defs><clipPath id="a"><path d="M87.18 52H198v93H87.18Zm0 0"/></clipPath><clipPath id="b"><path d="M87.18 142H202v120H87.18Zm0 0"/></clipPath></defs><g clip-path="url(#a)"><path fill="#dd7d14" fill-rule="evenodd" d="M146.75 65.887a.173.173 0 0 0-.191.16v15.461c0 .129.101.234.234.234q6.848.058 13.035 3.133c4.649 2.305 9.102 5.871 11.86 10.34a410 410 0 0 0 1.34 2.156.98.98 0 0 1-.106 1.203q-.949 1.019-2.567 2.653a54 54 0 0 0-4.328 4.945c-2.675 3.457-4.902 6.848-6.68 10.164q-2.828 5.289-4.738 10.402a.48.48 0 0 1-.464.305q-4.57-.206-7.184-.234c-5.363-.059-10.969.347-16.172 1.629l-3.312.808c-3.692.899-7.594 2.254-11.715 4.07-5.684 2.496-10.64 5.582-15.625 9.391q-1.789 1.366-2.211 2.047c-.047.074-.11.098-.196.062q-.538-.21-.636-.375c-.957-1.578-1.977-2.949-2.735-4.53-.16-.329-.683-1.376-1.578-3.13q-1.05-2.077-2.797-7c-.613-1.719-1-3.629-1.554-5.816-1.035-4.102-1.22-7.95-1.25-12.746q-.05-7.927 2.586-16.867.285-.955 1.414-3.868c.668-1.71 1.195-2.98 1.586-3.8 3.402-7.153 8.164-13.7 14.082-18.805q.006-.011 2.144-1.809 7.605-6.415 17.543-9.87 4.66-1.625 8.91-2.47c1.805-.359 3.887-1.144 5.89-1.28 4.056-.274 8.259-.442 12.2.355q1.138.228 5.2 1.113 3.169.688 4.913 1.258 7.033 2.296 11.774 4.957c9.328 5.23 16.777 12.492 22.355 21.785.207.352.125.602-.254.758a85 85 0 0 0-7.953 3.758c-1.05.562-2.168 1.078-3.132 1.84-.094.07-.18.066-.262-.024-.188-.195-.563-.578-.785-.906q-2.594-3.826-3.5-4.852c-1.207-1.36-2.375-2.738-3.68-3.91-2.09-1.879-3.691-3.207-4.8-3.973a51.6 51.6 0 0 0-10.977-5.808c-1.317-.5-3.184-1.051-5.61-1.653q-3.324-.818-6.125-1-2.7-.169-3.949-.261m0 0"/></g><path fill="#fbdb3f" fill-rule="evenodd" d="M193.945 203.016c-3.402-2.203-5.64-3.79-8.246-6.032-1.773-1.523-2.941-2.808-4.863-4.789-2.285-2.347-4.43-5.261-6.031-7.754-1.996-3.125-3.907-6.957-5.723-11.5-.55-1.379-1.078-2.972-1.582-4.793a55.6 55.6 0 0 1-2.023-13.777c-.047-2.219-.051-3.777-.008-4.684.168-3.773.726-7.39 1.625-11.246 1.898-8.132 6.101-16.496 11.48-23.093 1.696-2.075 3.899-4.395 6.621-6.957 3.075-2.895 6.985-5.524 10.586-7.493 1.606-.875 3.535-1.84 5.801-2.886.516-.239 1.914-.754 4.191-1.535q2.696-.931 4.254-1.317 5.515-1.36 9.489-1.66 6.007-.45 11.433.008 2.281.192 6.02.918a51.8 51.8 0 0 1 11.633 3.715 84 84 0 0 1 4.539 2.242q4.153 2.19 8.347 5.418c.457.355 1.57 1.304 3.344 2.855 1.258 1.094 2.242 2.012 2.953 2.746q8.356 8.625 12.656 19.782.47 1.224 1.875 5.648c.926 2.93 1.41 6.578 1.454 10.953.02 2.488.015 5.668-.016 9.531-.027 3.313-.281 6.106-1.008 9.086-.2.82-.578 2.141-1.144 3.961-1.657 5.328-4.004 9.969-7.04 14.649-4.289 6.613-9.996 12.144-16.453 16.578a55.8 55.8 0 0 1-15.605 7.457q-.909.271-3.68.98a42 42 0 0 1-3.715.797 64.4 64.4 0 0 1-13.609.758c-2.383-.121-5.426-.625-7.617-.828a8 8 0 0 1-1.317-.262q-1.698-.46-4.57-1.25c-4.973-1.37-9.77-3.449-14.05-6.226m42.864-94.903a38.4 38.4 0 0 0-11.649-1.437.21.21 0 0 0-.207.215v15.324c-.004.11.082.2.192.203 1.898.098 4.23.21 6.23.633 7.305 1.539 13.414 5.82 17.992 11.765q1.236 1.602 2.426 4.094 1.442 3.024 1.894 4.488c.77 2.5 1.223 5.2 1.356 8.086.031.633.367.95 1.016.957q8.195.078 14.57-.062a.353.353 0 0 0 .348-.36v-.003c-.09-2.559-.196-4.832-.641-7.203q-.31-1.671-1.047-4.72a28 28 0 0 0-1.55-4.55 57 57 0 0 0-5.962-10.586c-.328-.46-1.035-1.332-2.113-2.621q-1.228-1.464-2.27-2.465-8.726-8.381-20.585-11.758m0 0"/><g clip-path="url(#b)"><path fill="#f7941c" fill-rule="evenodd" d="M114.93 152.078c3.11-2.027 6.386-3.52 9.965-4.98q4.228-1.734 9.289-2.805a61.5 61.5 0 0 1 16.293-1.273.27.27 0 0 1 .253.285v.015c-1.14 9.059-.667 18.008 1.422 26.856q.294 1.241 1.02 3.73c1.933 6.637 4.933 13.082 8.52 18.992q1.154 1.9 3.218 4.66c2.047 2.743 4.91 6.149 7.512 8.704a77.2 77.2 0 0 0 18.437 13.46q4.946 2.596 10.614 4.41a.34.34 0 0 1 .207.45q-3.387 8.138-8.778 14.863-.948 1.185-3.578 4.028c-3.293 3.558-6.894 6.562-10.808 9.004a65 65 0 0 1-9.512 4.918q-2.626 1.096-6.09 2.14-4.63 1.407-9.07 1.617c-3.633.172-7.82.203-12.57.098-2.536-.059-5.172-.238-7.676-.832a66 66 0 0 1-9.371-2.98q-1.46-.586-4.067-1.852-2.406-1.164-3.957-2.082a57 57 0 0 1-12.723-10.223c-1.964-2.105-3.64-4.101-5.035-6q-1.177-1.599-1.757-2.625c-.7-1.234-1.477-2.238-2.168-3.633-.997-2.003-1.82-3.468-2.692-5.52q-5.63-13.292-4.441-27.87c.172-2.113.332-3.61.48-4.48.692-4.11 1.805-8.516 3.317-12.313 3.171-7.961 8.191-15.707 14.441-21.531q4.2-3.915 9.305-7.23m0 0"/></g><path d="M70.559 337.931v-47.468h31.421v8.28H80.59v11.313h19.312v8.266H80.59v19.61ZM118.697 338.603q-5.096.002-8.469-2.656c-2.242-1.781-3.359-4.43-3.359-7.953q0-3.984 1.875-6.25 1.888-2.28 4.938-3.328 3.045-1.062 6.562-1.391 4.64-.466 6.625-.969 1.999-.513 2-2.234v-.14q-.001-2.186-1.375-3.391-1.376-1.22-3.906-1.22-2.673 0-4.25 1.173-1.564 1.158-2.078 2.937l-9.141-.75q1.031-4.856 5.063-7.703 4.043-2.86 10.453-2.86 3.948.002 7.406 1.25 3.45 1.254 5.578 3.907c1.414 1.773 2.125 4.07 2.125 6.89v24.016h-9.36v-4.937h-.28c-.868 1.656-2.165 3.008-3.891 4.047q-2.578 1.56-6.516 1.562m2.828-6.812q3.234 0 5.313-1.891 2.092-1.887 2.094-4.687v-3.782q-.58.393-1.797.703-1.206.3-2.594.516-1.378.222-2.469.375-2.595.377-4.187 1.469c-1.055.719-1.578 1.777-1.578 3.172q-.001 2.033 1.468 3.078 1.466 1.048 3.75 1.047M165.347 302.338v7.406h-6.703v17.25c0 1.355.304 2.273.922 2.75q.936.72 2.422.719.684.001 1.375-.125.702-.124 1.078-.188l1.562 7.344q-.75.235-2.094.547-1.345.31-3.265.375-5.378.236-8.64-2.328-3.253-2.56-3.235-7.797v-18.547h-4.86v-7.406h4.86v-8.532h9.875v8.532ZM188.227 337.931h-14.641v-47.468h15.297q6.902.001 11.812 2.843c3.282 1.899 5.79 4.61 7.532 8.14q2.625 5.286 2.625 12.657c0 4.95-.883 9.203-2.641 12.766q-2.642 5.344-7.703 8.203-5.05 2.86-12.281 2.86m-8.891-5.093h8.531q8.825 0 13.125-5.016 4.296-5.029 4.297-13.719c0-5.75-1.406-10.273-4.219-13.578q-4.218-4.952-12.562-4.953h-9.172ZM222.43 337.931h-6.015l17.422-47.468h5.937l17.422 47.468h-6.016l-4.78-13.437h-19.188Zm6.594-18.547h15.563l-7.594-21.406h-.375ZM304.666 314.197q0 7.518-2.72 12.984c-1.804 3.649-4.28 6.461-7.437 8.438q-4.721 2.97-10.797 2.969-6.08 0-10.812-2.97-4.72-2.964-7.438-8.437-2.704-5.466-2.703-12.984c0-5 .899-9.32 2.703-12.969q2.718-5.484 7.438-8.437c3.156-1.977 6.758-2.97 10.812-2.97 4.051 0 7.649.993 10.797 2.97 3.157 1.968 5.633 4.78 7.438 8.437 1.812 3.649 2.719 7.969 2.719 12.969m-5.563 0q0-6.154-2.062-10.39-2.051-4.249-5.532-6.423-3.485-2.186-7.797-2.187-4.314 0-7.796 2.187-3.486 2.174-5.547 6.422c-1.367 2.824-2.047 6.29-2.047 10.39q-.002 6.175 2.047 10.423 2.061 4.237 5.547 6.406 3.482 2.173 7.796 2.172 4.312 0 7.797-2.172 3.48-2.169 5.532-6.406 2.062-4.247 2.062-10.422m0 0"/></svg>