<svg xmlns="http://www.w3.org/2000/svg" width="166" height="48" fill="none" viewBox="0 0 166 48"><path fill="#6927DA" fill-rule="evenodd" d="M22 43.25c10.493 0 19-8.507 19-19s-8.507-19-19-19-19 8.507-19 19 8.507 19 19 19m0 3c12.15 0 22-9.85 22-22s-9.85-22-22-22-22 9.85-22 22 9.85 22 22 22" clip-rule="evenodd"/><path fill="#6927DA" fill-rule="evenodd" d="M16.753 38.845c3.874-.997 8.335-3.54 12.318-7.524s6.527-8.444 7.523-12.318c1.016-3.95.325-6.704-1.159-8.188s-4.238-2.175-8.188-1.16c-3.874.997-8.335 3.54-12.318 7.524s-6.527 8.444-7.524 12.318c-1.015 3.95-.324 6.704 1.16 8.188s4.238 2.175 8.188 1.16m-10.31.961c5.078 5.077 16.158 2.228 24.75-6.364 8.59-8.591 11.44-19.672 6.363-24.748S21.4 6.466 12.808 15.058C4.216 23.649 1.367 34.73 6.444 39.806" clip-rule="evenodd"/><path fill="#6927DA" fill-rule="evenodd" d="M36.594 29.497c-.996-3.874-3.54-8.335-7.523-12.318s-8.444-6.527-12.318-7.524c-3.95-1.015-6.704-.325-8.188 1.16s-2.175 4.238-1.16 8.188c.996 3.874 3.54 8.335 7.524 12.318s8.444 6.527 12.318 7.523c3.95 1.016 6.703.325 8.188-1.159 1.484-1.484 2.175-4.238 1.16-8.188m.962 10.31c5.077-5.078 2.228-16.158-6.364-24.75C22.601 6.466 11.52 3.617 6.443 8.694S4.216 24.85 12.807 33.442c8.592 8.592 19.672 11.441 24.75 6.364" clip-rule="evenodd"/><path fill="#101828" d="M62.85 34.24c4.71 0 7.89-2.46 7.89-6.39 0-8.31-11.04-4.77-11.04-9.15 0-1.23 1.11-2.07 2.88-2.07 2.01 0 3.27 1.08 3.42 2.73h4.29c-.12-3.99-3.18-6.6-7.71-6.6-4.26 0-7.26 2.46-7.26 5.94 0 8.25 10.89 5.1 10.89 9.21 0 1.59-1.35 2.43-3.36 2.43-2.22 0-3.63-1.35-3.81-3.48h-4.32c.18 4.47 3.36 7.38 8.13 7.38M71.76 40.12h4.17v-7.47c.81 1.02 2.28 1.59 3.99 1.59 4.35 0 7.29-3.09 7.29-7.8s-2.7-7.8-6.93-7.8c-1.95 0-3.45.72-4.35 1.89v-1.65h-4.17zm7.65-9.48c-2.25 0-3.72-1.68-3.72-4.2 0-2.55 1.47-4.23 3.72-4.23 2.19 0 3.69 1.68 3.69 4.23 0 2.52-1.5 4.2-3.69 4.2M88.22 34h4.17v-8.28c0-1.95 1.29-3.36 3.12-3.36 1.74 0 2.94 1.32 2.94 3.15V34h4.169v-9.42c0-3.48-2.22-5.94-5.61-5.94-2.1 0-3.75.87-4.62 2.34v-8.67h-4.17zM114.285 28.87c-.331 1.29-1.44 1.95-3.12 1.95-2.1 0-3.45-1.32-3.75-3.45h10.859c.03-.33.061-.78.061-1.35 0-3.45-2.13-7.38-7.47-7.38-5.13 0-7.47 3.93-7.47 7.77 0 3.81 2.64 7.83 7.77 7.83 3.72 0 6.599-2.1 7.2-5.37zm-3.42-7.17c2.01 0 3.18 1.35 3.3 3.03h-6.69c.36-2.1 1.5-3.03 3.39-3.03M129.271 22.36v-3.48h-2.152c-1.83 0-2.97.63-3.78 2.52v-2.52h-4.2V34h4.2v-7.35c0-2.58.93-4.29 3-4.29zM143.671 18.88h-4.2v8.28c0 1.92-1.29 3.36-3.12 3.36-1.71 0-2.91-1.32-2.91-3.15v-8.49h-4.17v9.42c0 3.45 2.22 5.94 5.61 5.94 2.07 0 3.75-.9 4.59-2.34V34h4.2zM145.471 34h4.17V12.31h-4.17zM161.546 28.87c-.33 1.29-1.44 1.95-3.12 1.95-2.1 0-3.45-1.32-3.75-3.45h10.86c.03-.33.06-.78.06-1.35 0-3.45-2.13-7.38-7.47-7.38-5.13 0-7.47 3.93-7.47 7.77 0 3.81 2.64 7.83 7.77 7.83 3.72 0 6.6-2.1 7.2-5.37zm-3.42-7.17c2.01 0 3.18 1.35 3.3 3.03h-6.69c.36-2.1 1.5-3.03 3.39-3.03"/></svg>