<svg xmlns="http://www.w3.org/2000/svg" width="175" height="48" fill="none" viewBox="0 0 175 48"><path fill="#087443" d="M14.778 19.45c5.76-2.755 10.27-7.431 12.858-13.275-1.67-1.754-3.84-3.006-6.179-3.758L20.205 2c-.084.167-.167.417-.167.584-2.004 5.678-6.095 10.27-11.605 12.858-3.841 1.837-6.68 5.177-8.016 9.184L0 25.88c.167.083.417.166.584.166A26.7 26.7 0 0 1 5.26 28.3c2.087-3.757 5.427-6.93 9.518-8.85"/><path fill="#16B364" d="M38.99 19.784c-3.089 4.675-7.347 8.432-12.607 10.937-4.258 2.004-7.514 5.761-9.017 10.27l-.417 1.419c1.586 1.42 3.506 2.505 5.594 3.173l1.252.417c.083-.167.167-.417.167-.584 2.004-5.678 6.095-10.27 11.605-12.858 3.84-1.837 6.763-5.177 8.016-9.184L44 22.122c-1.753-.502-3.423-1.336-5.01-2.338"/><path fill="#099250" d="M13.61 38.068c2.086-5.01 5.927-9.1 10.853-11.438 4.508-2.17 8.266-5.51 10.854-9.602-1.92-1.836-3.507-3.924-4.676-6.428-3.089 5.677-7.931 10.269-13.86 13.108-3.422 1.586-6.178 4.341-7.847 7.68 1.836 1.754 3.34 3.925 4.508 6.346z"/><path fill="#101828" d="M53.95 34h14.07v-3.9h-9.54V13h-4.53zM82.72 18.88h-4.2v8.28c0 1.92-1.29 3.36-3.12 3.36-1.71 0-2.91-1.32-2.91-3.15v-8.49h-4.17v9.42c0 3.45 2.22 5.94 5.61 5.94 2.07 0 3.75-.9 4.59-2.34V34h4.2zM84.28 34h4.2v-8.58c0-1.95 1.11-3.24 2.85-3.24 1.62 0 2.64 1.29 2.64 3.24V34h4.2v-8.58c0-1.95 1.11-3.24 2.85-3.24 1.62 0 2.67 1.29 2.67 3.24V34h4.17v-9.9c0-3.03-2.13-5.46-5.43-5.46-2.43 0-4.32 1.29-5.04 2.76-.72-1.8-2.25-2.76-4.62-2.76-2.04 0-3.48.99-4.29 2.37v-2.13h-4.2zM109.291 12.31v4.41h4.44v-4.41zm.12 21.69h4.2V18.88h-4.2zM115.176 34h4.2v-8.28c0-1.95 1.29-3.36 3.12-3.36 1.74 0 2.91 1.32 2.91 3.15V34h4.2v-9.42c0-3.48-2.22-5.94-5.64-5.94-2.07 0-3.75.87-4.59 2.34v-2.1h-4.2zM138.367 34.24c4.65 0 7.98-3.3 7.98-7.8s-3.33-7.8-7.98-7.8-7.98 3.3-7.98 7.8 3.33 7.8 7.98 7.8m0-3.6c-2.25 0-3.78-1.71-3.78-4.2 0-2.52 1.53-4.23 3.78-4.23s3.78 1.71 3.78 4.23c0 2.49-1.53 4.2-3.78 4.2M161.558 18.88h-4.2v8.28c0 1.92-1.29 3.36-3.12 3.36-1.71 0-2.91-1.32-2.91-3.15v-8.49h-4.17v9.42c0 3.45 2.22 5.94 5.61 5.94 2.07 0 3.75-.9 4.59-2.34V34h4.2zM168.638 34.24c3.54 0 5.88-1.89 5.88-4.77 0-6.84-8.28-3.33-8.28-6.42 0-.96.81-1.47 1.98-1.47 1.14 0 2.31.69 2.49 1.98h3.63c-.15-2.97-2.61-4.92-6.24-4.92-3.09 0-5.4 1.89-5.4 4.56 0 6.36 8.13 3.33 8.13 6.42 0 .84-.9 1.47-2.19 1.47-1.56 0-2.61-.84-2.76-2.19h-3.6c.15 3.27 2.67 5.34 6.36 5.34"/></svg>