<svg xmlns="http://www.w3.org/2000/svg" width="202" height="48" fill="none" viewBox="0 0 202 48"><path fill="#101828" fill-rule="evenodd" d="M0 24c13.984 0 22-8.016 22-22 0 13.984 8.016 22 22 22-13.984 0-22 8.016-22 22 0-13.984-8.016-22-22-22" clip-rule="evenodd"/><path fill="#101828" d="m52.69 33.91 7.68-21h4.32l7.68 21h-4.08l-1.68-4.86h-8.19l-1.71 4.86zm6.78-7.86h6.09l-3.06-8.73zM80.072 34.27q-2.28 0-4.02-.99a7.3 7.3 0 0 1-2.76-2.76q-.99-1.77-.99-4.05t.99-4.05q1.02-1.77 2.76-2.76t4.02-.99q2.85 0 4.8 1.5 1.95 1.47 2.49 4.08h-4.05q-.3-1.08-1.2-1.68-.87-.63-2.07-.63-1.59 0-2.7 1.2t-1.11 3.33 1.11 3.33 2.7 1.2q1.2 0 2.07-.6.9-.6 1.2-1.71h4.05q-.54 2.52-2.49 4.05t-4.8 1.53M89.27 33.91V19.03h3.39l.33 2.01a5.2 5.2 0 0 1 1.89-1.71q1.2-.66 2.76-.66 3.45 0 4.89 2.67a5.8 5.8 0 0 1 2.16-1.95q1.38-.72 3-.72 2.91 0 4.47 1.74t1.56 5.1v8.4h-3.84v-8.04q0-1.92-.75-2.94-.72-1.02-2.25-1.02-1.56 0-2.52 1.14-.93 1.14-.93 3.18v7.68h-3.84v-8.04q0-1.92-.75-2.94t-2.31-1.02q-1.53 0-2.49 1.14-.93 1.14-.93 3.18v7.68zM123.096 34.27q-2.25 0-3.99-.96a6.95 6.95 0 0 1-2.73-2.7q-.99-1.74-.99-4.02 0-2.31.96-4.11.99-1.8 2.7-2.79 1.74-1.02 4.08-1.02 2.19 0 3.87.96t2.61 2.64q.96 1.65.96 3.69 0 .33-.03.69 0 .36-.03.75h-11.31q.12 1.74 1.2 2.73 1.11.99 2.67.99 1.17 0 1.95-.51.81-.54 1.2-1.38h3.9q-.42 1.41-1.41 2.58-.96 1.14-2.4 1.8-1.41.66-3.21.66m.03-12.48q-1.41 0-2.49.81-1.08.78-1.38 2.4h7.41q-.09-1.47-1.08-2.34t-2.46-.87M147.544 34.27q-3.18 0-5.46-1.35-2.28-1.38-3.51-3.81-1.23-2.46-1.23-5.67t1.23-5.67 3.51-3.84 5.46-1.38q3.78 0 6.18 1.89 2.43 1.86 3.03 5.25h-4.23q-.39-1.71-1.68-2.67-1.26-.99-3.36-.99-2.91 0-4.56 1.98t-1.65 5.43 1.65 5.43q1.65 1.95 4.56 1.95 2.1 0 3.36-.9 1.29-.93 1.68-2.55h4.23q-.6 3.24-3.03 5.07-2.4 1.83-6.18 1.83M165.703 34.27q-2.16 0-3.9-.99a7.45 7.45 0 0 1-2.73-2.73q-.99-1.77-.99-4.08t1.02-4.05q1.02-1.77 2.73-2.76 1.74-.99 3.9-.99 2.13 0 3.84.99 1.74.99 2.73 2.76 1.02 1.74 1.02 4.05t-1.02 4.08a7.16 7.16 0 0 1-2.73 2.73q-1.74.99-3.87.99m0-3.33q1.5 0 2.61-1.11 1.11-1.14 1.11-3.36t-1.11-3.33q-1.11-1.14-2.58-1.14-1.53 0-2.64 1.14-1.08 1.11-1.08 3.33t1.08 3.36q1.11 1.11 2.61 1.11M175.257 33.91V19.03h3.42l.36 2.79q.81-1.44 2.19-2.28 1.41-.87 3.3-.87v4.05h-1.08q-1.26 0-2.25.39t-1.56 1.35q-.54.96-.54 2.67v6.78zM185.651 40.51V19.03h3.42l.42 2.13q.72-.99 1.89-1.74 1.2-.75 3.09-.75 2.1 0 3.75 1.02t2.61 2.79.96 4.02-.96 4.02a7.37 7.37 0 0 1-2.61 2.76q-1.65.99-3.75.99-1.68 0-2.94-.63a5.3 5.3 0 0 1-2.04-1.77v8.64zm8.01-9.6q1.83 0 3.03-1.23t1.2-3.18-1.2-3.21-3.03-1.26q-1.86 0-3.06 1.26-1.17 1.23-1.17 3.18t1.17 3.21q1.2 1.23 3.06 1.23"/></svg>