<svg xmlns="http://www.w3.org/2000/svg" width="189" height="48" fill="none" viewBox="0 0 189 48"><path fill="#5720B7" d="M21.58 4C17.94 4 15 6.904 15 10.5c0 3.568 2.94 6.472 6.552 6.5a1.633 1.633 0 0 1-1.596-1.632c0-.885.728-1.632 1.652-1.632h16.464c2.716 0 4.928-2.185 4.928-4.868S40.788 4 38.072 4z"/><path fill="#6927DA" d="M13.58 17C9.94 17 7 19.904 7 23.5c0 3.568 2.94 6.472 6.552 6.5a1.633 1.633 0 0 1-1.596-1.632c0-.885.728-1.632 1.652-1.632h16.464c2.716 0 4.928-2.185 4.928-4.868S32.788 17 30.072 17z"/><path fill="#7839EE" d="M8.05 30C4.15 30 1 33.128 1 37c0 3.843 3.15 6.97 7.02 7a1.754 1.754 0 0 1-1.71-1.758c0-.953.78-1.757 1.77-1.757h17.64c2.91 0 5.28-2.353 5.28-5.242C31 32.353 28.63 30 25.72 30z"/><path fill="#101828" d="M52.98 33.91v-21h13.5v3.6h-9.54v5.01h8.7v3.6h-8.7v5.19h9.72v3.6zM68.211 39.91V19.03h3.72v1.8h.54q.51-.87 1.59-1.53 1.08-.69 3.09-.69 1.8 0 3.33.9 1.53.87 2.46 2.58t.93 4.14v.48q0 2.43-.93 4.14t-2.46 2.61q-1.53.87-3.33.87-1.35 0-2.28-.33-.9-.3-1.47-.78a5.6 5.6 0 0 1-.87-1.02h-.54v7.71zm7.8-8.88q1.77 0 2.91-1.11 1.17-1.14 1.17-3.3v-.3q0-2.16-1.17-3.27-1.17-1.14-2.91-1.14t-2.91 1.14q-1.17 1.11-1.17 3.27v.3q0 2.16 1.17 3.3 1.17 1.11 2.91 1.11M85.842 33.91V19.03h3.78v14.88zm1.89-16.62q-1.02 0-1.74-.66-.69-.66-.69-1.74t.69-1.74q.72-.66 1.74-.66 1.05 0 1.74.66t.69 1.74-.69 1.74-1.74.66M99.3 34.33q-2.16 0-3.93-.9a6.8 6.8 0 0 1-2.76-2.61q-1.02-1.71-1.02-4.14v-.42q0-2.43 1.02-4.14t2.76-2.61q1.77-.9 3.93-.9 2.131 0 3.661.75t2.46 2.07q.96 1.29 1.26 2.94l-3.66.78a4.3 4.3 0 0 0-.54-1.62 3 3 0 0 0-1.2-1.14q-.75-.42-1.89-.42t-2.07.51q-.9.48-1.44 1.47-.51.96-.51 2.37v.3q0 1.41.51 2.4.54.96 1.44 1.47.93.48 2.07.48 1.71 0 2.58-.87.9-.9 1.14-2.34l3.66.87a8.2 8.2 0 0 1-1.35 2.91q-.93 1.29-2.46 2.04t-3.66.75M114.059 34.15q-1.74 0-3.06-.78a5.54 5.54 0 0 1-2.01-2.22q-.72-1.41-.72-3.24v-8.88h3.78v8.58q0 1.68.81 2.52.84.84 2.37.84 1.74 0 2.7-1.14.96-1.17.96-3.24v-7.56h3.78v14.88h-3.72v-1.95h-.54q-.36.75-1.35 1.47t-3 .72M125.375 33.91V19.03h3.72v1.68h.54q.33-.9 1.08-1.32.78-.42 1.8-.42h1.8v3.36h-1.86q-1.44 0-2.37.78-.93.75-.93 2.34v8.46zM135.77 33.91V19.03h3.78v14.88zm1.89-16.62q-1.02 0-1.74-.66-.69-.66-.69-1.74t.69-1.74q.72-.66 1.74-.66 1.05 0 1.74.66t.69 1.74-.69 1.74-1.74.66M149.319 34.33q-2.22 0-3.99-.9a6.75 6.75 0 0 1-2.79-2.61q-1.02-1.71-1.02-4.11v-.48q0-2.4 1.02-4.11a6.75 6.75 0 0 1 2.79-2.61q1.77-.9 3.99-.9t3.99.9a6.75 6.75 0 0 1 2.79 2.61q1.02 1.71 1.02 4.11v.48q0 2.4-1.02 4.11a6.75 6.75 0 0 1-2.79 2.61q-1.77.9-3.99.9m0-3.36q1.74 0 2.88-1.11 1.14-1.14 1.14-3.24v-.3q0-2.1-1.14-3.21-1.11-1.14-2.88-1.14-1.74 0-2.88 1.14-1.14 1.11-1.14 3.21v.3q0 2.1 1.14 3.24 1.14 1.11 2.88 1.11M164.778 34.15q-1.74 0-3.06-.78a5.54 5.54 0 0 1-2.01-2.22q-.72-1.41-.72-3.24v-8.88h3.78v8.58q0 1.68.81 2.52.84.84 2.37.84 1.74 0 2.7-1.14.96-1.17.96-3.24v-7.56h3.78v14.88h-3.72v-1.95h-.54q-.36.75-1.35 1.47t-3 .72M182.274 34.33q-2.91 0-4.77-1.26t-2.25-3.6l3.48-.9q.21 1.05.69 1.65.51.6 1.23.87.75.24 1.62.24 1.32 0 1.95-.45.63-.48.63-1.17t-.6-1.05q-.6-.39-1.92-.63l-.84-.15q-1.56-.3-2.85-.81-1.29-.54-2.07-1.47t-.78-2.4q0-2.22 1.62-3.39 1.62-1.2 4.26-1.2 2.49 0 4.14 1.11t2.16 2.91l-3.51 1.08q-.24-1.14-.99-1.62-.72-.48-1.8-.48t-1.65.39q-.57.36-.57 1.02 0 .72.6 1.08.6.33 1.62.51l.84.15q1.68.3 3.03.81 1.38.48 2.16 1.41.81.9.81 2.46 0 2.34-1.71 3.63-1.68 1.26-4.53 1.26"/></svg>